<?xml version="1.0" encoding="UTF-8"?>
<svg width="1200pt" height="1200pt" version="1.1" viewBox="0 0 1200 1200" xmlns="http://www.w3.org/2000/svg">
 <path d="m249.14 516.19c12.047-2.625 19.734-14.438 17.156-26.484-4.875-22.594-7.3125-46.406-7.3125-70.781 0-30.844 4.5-60.609 12.234-89.062h176.11c-2.5781 29.016-4.3125 58.688-4.3125 89.062 0 30.188 1.6875 59.906 4.3125 89.203h-80.203c-12.281 0-22.266 9.9844-22.266 22.266s9.9844 22.266 22.266 22.266h85.172c2.6719 18.094 5.5312 35.297 9.0469 50.953 2.6719 12 14.859 19.406 26.625 16.922 12-2.7188 19.594-14.625 16.922-26.625-2.8594-12.797-5.2969-26.719-7.5469-41.25h204.98c-2.2031 14.391-4.6406 28.312-7.5469 41.25-2.6719 12 4.875 23.906 16.922 26.625 1.6406 0.375 3.2812 0.5625 4.875 0.5625 10.219 0 19.406-7.0781 21.75-17.438 3.5625-15.891 6.4219-33 9.0469-50.953h85.547c12.281 0 22.266-9.9844 22.266-22.266s-9.9844-22.266-22.266-22.266h-80.531c2.625-29.344 4.3594-59.156 4.3594-89.203 0-30.281-1.6875-59.953-4.3125-89.062h176.11c7.7344 28.453 12.234 58.219 12.234 89.062 0 24.375-2.4844 48.188-7.3125 70.781-2.5781 12.047 5.0625 23.859 17.156 26.484 1.5469 0.32812 3.1406 0.51562 4.7344 0.51562 10.266 0 19.547-7.1719 21.797-17.625 5.4844-25.688 8.2969-52.641 8.2969-80.156 0-212.53-172.87-385.4-385.4-385.4-212.72-0.09375-385.69 172.82-385.69 385.36 0 27.516 2.8125 54.469 8.2969 80.156 2.625 12.047 14.766 19.734 26.484 17.156zm462.98-97.266c0 30.141-1.7812 59.953-4.5469 89.203h-215.53c-2.7188-29.156-4.5-58.969-4.5-89.203 0-30.469 1.7344-60.188 4.4531-89.062h215.58c2.7188 29.062 4.5 58.734 4.5 89.062zm-112.31-340.87c35.766 0 81.938 72.938 102.28 207.19h-204.56c20.344-134.26 66.516-207.19 102.28-207.19zm313.5 207.24h-165.79c-12.094-84.797-34.828-152.72-64.453-196.5 103.73 26.203 188.81 99.703 230.26 196.5zm-396.71-196.5c-29.625 43.781-52.359 111.7-64.453 196.5h-165.79c41.438-96.797 126.56-170.29 230.29-196.5z"/>
 <path d="m404.48 903.56c10.594-6.2344 14.156-19.922 7.9219-30.562-2.5312-4.2656-5.7188-7.4531-8.2969-10.031-20.953-20.953-45.422-37.125-72.047-47.953 34.031-25.406 56.438-65.625 56.438-111.28 0-76.781-62.438-139.22-139.22-139.22-76.781 0-139.22 62.438-139.22 139.22 0 45.75 22.406 86.016 56.578 111.42-80.016 32.719-136.64 111.33-136.64 202.97v57.234c0 12.281 9.9844 22.266 22.266 22.266h258.32c12.281 0 22.266-9.9844 22.266-22.266s-9.9844-22.266-22.266-22.266h-236.02v-34.969c0-96.328 78.375-174.71 174.71-174.71 46.547 0 90.328 18.141 124.64 52.219 6.2344 10.547 19.875 14.156 30.562 7.9219zm-155.26-294.47c52.172 0 94.641 42.469 94.641 94.641s-42.469 94.641-94.641 94.641c-52.172 0-94.641-42.469-94.641-94.641s42.469-94.641 94.641-94.641z"/>
 <path d="m1105.9 862.97c-21-21-45.562-37.172-72.328-48.047 33.984-25.406 56.344-65.625 56.344-111.23 0-76.781-62.438-139.22-139.22-139.22-76.781 0-139.22 62.438-139.22 139.22 0 45.797 22.5 86.109 56.672 111.47-29.531 12-56.391 30.234-78.141 54.094-8.2969 9.0938-7.6406 23.203 1.4531 31.5 9.0469 8.2969 23.156 7.6875 31.5-1.4531 32.438-35.531 79.031-55.922 127.74-55.922 46.781 0 90.656 18.141 123.66 51.094 32.906 32.953 51.094 76.828 51.094 123.66v34.969h-236.02c-12.281 0-22.266 9.9844-22.266 22.266s9.9844 22.266 22.266 22.266h258.32c12.281 0 22.266-9.9844 22.266-22.266v-57.234c0-58.688-22.781-113.81-64.125-155.16zm-155.21-253.87c52.172 0 94.641 42.469 94.641 94.641s-42.469 94.641-94.641 94.641c-52.172 0-94.641-42.469-94.641-94.641s42.469-94.641 94.641-94.641z"/>
 <path d="m682.4 884.11c34.219-25.359 56.719-65.719 56.719-111.52 0-76.781-62.438-139.22-139.18-139.22-76.734 0-139.22 62.438-139.22 139.22 0 45.797 22.5 86.156 56.719 111.52-80.109 32.672-136.78 111.28-136.78 202.97v57.141c0 12.281 9.9844 22.266 22.266 22.266h393.89c12.281 0 22.266-9.9844 22.266-22.266v-57.141c0-91.734-56.672-170.29-136.78-202.97zm-82.453-206.16c52.172 0 94.594 42.469 94.594 94.641s-42.422 94.594-94.594 94.594-94.641-42.422-94.641-94.594 42.469-94.641 94.641-94.641zm174.66 444h-349.31v-34.828c0-96.281 78.375-174.66 174.66-174.66 96.281 0 174.66 78.328 174.66 174.66z"/>
</svg>
