<?xml version="1.0" encoding="UTF-8"?>
<svg width="1200pt" height="1200pt" version="1.1" viewBox="0 0 1200 1200" xmlns="http://www.w3.org/2000/svg">
 <path d="m102.33 35.297c-34.219 0-62.25 28.078-62.25 62.297v541.92c0 34.219 28.031 62.391 62.25 62.391h401.34c34.219 0 62.297-28.172 62.297-62.391v-541.92c0-34.219-28.078-62.297-62.297-62.297zm594 0c-34.219 0-62.25 28.078-62.25 62.297v279.84c0 34.219 28.031 62.25 62.25 62.25h401.34c34.219 0 62.25-28.031 62.25-62.25v-279.84c0-34.219-28.031-62.297-62.25-62.297zm-594 35.344h401.34c15.281 0 27 11.672 27 26.953v541.92c0 15.281-11.719 27.094-27 27.094h-401.34c-15.281 0-26.953-11.812-26.953-27.094v-541.92c0-15.281 11.672-26.953 26.953-26.953zm594 0h401.34c15.281 0 26.953 11.672 26.953 26.953v279.84c0 15.281-11.672 26.953-26.953 26.953h-401.34c-15.281 0-26.953-11.672-26.953-26.953v-279.84c0-15.281 11.672-26.953 26.953-26.953zm0 427.64c-34.219 0-62.25 28.078-62.25 62.297v541.87c0 34.219 28.031 62.297 62.25 62.297h401.34c34.219 0 62.25-28.078 62.25-62.297v-541.92c0-34.219-28.031-62.297-62.25-62.297zm0 35.297h401.34c15.281 0 26.953 11.719 26.953 27v541.87c0 15.281-11.672 27-26.953 27h-401.34c-15.281 0-26.953-11.719-26.953-27v-541.92c0-15.281 11.672-27 26.953-27zm-594 226.92c-34.219 0-62.25 28.078-62.25 62.297v279.66c0 34.219 28.031 62.297 62.25 62.297h401.34c34.219 0 62.297-28.078 62.297-62.297v-279.66c0-34.219-28.078-62.297-62.297-62.297zm0 35.297h401.34c15.281 0 27 11.719 27 27v279.66c0 15.281-11.719 27-27 27h-401.34c-15.281 0-26.953-11.719-26.953-27v-279.66c0-15.281 11.672-27 26.953-27z"/>
</svg>
