<svg xmlns="http://www.w3.org/2000/svg"  viewBox="0 0 32 32" width="50px" height="50px" baseProfile="basic"><linearGradient id="_wgL0JILcfKIRDWZ55B2Ra" x1="23.797" x2="28.213" y1="11.027" y2="15.443" gradientUnits="userSpaceOnUse"><stop offset="0" stop-color="#2680ff" stop-opacity=".95"/><stop offset="1" stop-color="#2680ff" stop-opacity=".5"/></linearGradient><path fill="url(#_wgL0JILcfKIRDWZ55B2Ra)" d="M26,16.513c1.593,0,3-1.451,3-3.306C29,11.331,27.582,10,26,10s-3,1.375-3,3.218 C23,15.062,24.418,16.513,26,16.513z"/><linearGradient id="_wgL0JILcfKIRDWZ55B2Rb" x1="23.797" x2="28.213" y1="11.027" y2="15.443" gradientUnits="userSpaceOnUse"><stop offset="0" stop-color="#fff" stop-opacity=".6"/><stop offset=".493" stop-color="#fff" stop-opacity="0"/><stop offset=".997" stop-color="#fff" stop-opacity=".3"/></linearGradient><path fill="url(#_wgL0JILcfKIRDWZ55B2Rb)" d="M26,10.5c1.229,0,2.5,1.013,2.5,2.707 c0,1.521-1.145,2.806-2.5,2.806c-1.355,0-2.5-1.28-2.5-2.795C23.5,11.719,24.621,10.5,26,10.5 M26,10c-1.582,0-3,1.375-3,3.218 c0,1.844,1.418,3.295,3,3.295c1.593,0,3-1.451,3-3.306C29,11.331,27.582,10,26,10L26,10z"/><linearGradient id="_wgL0JILcfKIRDWZ55B2Rc" x1="3.797" x2="8.213" y1="11.027" y2="15.443" gradientUnits="userSpaceOnUse"><stop offset="0" stop-color="#2680ff" stop-opacity=".95"/><stop offset="1" stop-color="#2680ff" stop-opacity=".5"/></linearGradient><path fill="url(#_wgL0JILcfKIRDWZ55B2Rc)" d="M6,16.513c1.593,0,3-1.451,3-3.306 C9,11.331,7.582,10,6,10c-1.582,0-3,1.375-3,3.218C3,15.062,4.418,16.513,6,16.513z"/><linearGradient id="_wgL0JILcfKIRDWZ55B2Rd" x1="3.797" x2="8.213" y1="11.027" y2="15.443" gradientUnits="userSpaceOnUse"><stop offset="0" stop-color="#fff" stop-opacity=".6"/><stop offset=".493" stop-color="#fff" stop-opacity="0"/><stop offset=".997" stop-color="#fff" stop-opacity=".3"/></linearGradient><path fill="url(#_wgL0JILcfKIRDWZ55B2Rd)" d="M6,10.5c1.229,0,2.5,1.013,2.5,2.707 c0,1.521-1.145,2.806-2.5,2.806c-1.355,0-2.5-1.28-2.5-2.795C3.5,11.719,4.621,10.5,6,10.5 M6,10c-1.582,0-3,1.375-3,3.218 c0,1.844,1.418,3.295,3,3.295c1.593,0,3-1.451,3-3.306C9,11.331,7.582,10,6,10L6,10z"/><linearGradient id="_wgL0JILcfKIRDWZ55B2Re" x1="13.49" x2="18.52" y1="9.754" y2="14.784" gradientUnits="userSpaceOnUse"><stop offset="0" stop-color="#2680ff" stop-opacity=".95"/><stop offset="1" stop-color="#2680ff" stop-opacity=".5"/></linearGradient><path fill="url(#_wgL0JILcfKIRDWZ55B2Re)" d="M16.005,16 c1.807,0,3.408-1.644,3.408-3.765s-1.601-3.657-3.408-3.657s-3.419,1.569-3.419,3.678C12.587,14.356,14.188,16,16.005,16z"/><linearGradient id="_wgL0JILcfKIRDWZ55B2Rf" x1="13.49" x2="18.52" y1="9.754" y2="14.784" gradientUnits="userSpaceOnUse"><stop offset="0" stop-color="#fff" stop-opacity=".6"/><stop offset=".493" stop-color="#fff" stop-opacity="0"/><stop offset=".997" stop-color="#fff" stop-opacity=".3"/></linearGradient><path fill="url(#_wgL0JILcfKIRDWZ55B2Rf)" d="M16.005,9.079 c1.603,0,2.908,1.416,2.908,3.157c0,1.77-1.332,3.265-2.908,3.265c-1.582,0-2.919-1.485-2.919-3.243 C13.087,10.504,14.396,9.079,16.005,9.079 M16.005,8.579c-1.807,0-3.419,1.569-3.419,3.678c0,2.099,1.601,3.743,3.419,3.743 c1.807,0,3.408-1.644,3.408-3.765S17.812,8.579,16.005,8.579L16.005,8.579z"/><linearGradient id="_wgL0JILcfKIRDWZ55B2Rg" x1="12.008" x2="19.993" y1="18.344" y2="26.329" gradientUnits="userSpaceOnUse"><stop offset="0" stop-color="#2680ff" stop-opacity=".95"/><stop offset="1" stop-color="#2680ff" stop-opacity=".5"/></linearGradient><path fill="url(#_wgL0JILcfKIRDWZ55B2Rg)" d="M10.471,24h11.058	C22.45,24,23,23.577,23,22.868c0-2.148-2.688-5.111-6.995-5.111C11.688,17.757,9,20.72,9,22.868C9,23.577,9.55,24,10.471,24z"/><linearGradient id="_wgL0JILcfKIRDWZ55B2Rh" x1="2.434" x2="9.121" y1="18.664" y2="25.35" gradientUnits="userSpaceOnUse"><stop offset="0" stop-color="#2680ff" stop-opacity=".95"/><stop offset="1" stop-color="#2680ff" stop-opacity=".5"/></linearGradient><path fill="url(#_wgL0JILcfKIRDWZ55B2Rh)" d="M9,22.868c0-0.994,0.582-2.16,1.629-3.129	c-1.042-1.094-2.632-1.9-4.634-1.9C2.31,17.839,0,20.576,0,22.824C0,23.563,0.406,24,1.519,24h8.951C9.55,24,9,23.577,9,22.868z"/><linearGradient id="_wgL0JILcfKIRDWZ55B2Ri" x1="22.66" x2="29.783" y1="18.446" y2="25.569" gradientUnits="userSpaceOnUse"><stop offset="0" stop-color="#2680ff" stop-opacity=".95"/><stop offset="1" stop-color="#2680ff" stop-opacity=".5"/></linearGradient><path fill="url(#_wgL0JILcfKIRDWZ55B2Ri)" d="M25.995,17.839	c-1.995,0-3.583,0.806-4.624,1.899C22.418,20.706,23,21.873,23,22.868C23,23.577,22.45,24,21.529,24h8.951	c1.114,0,1.52-0.437,1.52-1.176C32,20.576,29.689,17.839,25.995,17.839z"/><linearGradient id="_wgL0JILcfKIRDWZ55B2Rj" x1="7.436" x2="24.563" y1="13.662" y2="30.789" gradientUnits="userSpaceOnUse"><stop offset="0" stop-color="#fff" stop-opacity=".6"/><stop offset=".493" stop-color="#fff" stop-opacity="0"/><stop offset=".997" stop-color="#fff" stop-opacity=".3"/></linearGradient><path fill="url(#_wgL0JILcfKIRDWZ55B2Rj)" d="M16.005,18.257	c1.955,0,3.74,0.656,5.026,1.848l0.362,0.335l0.34-0.357c1.07-1.124,2.584-1.744,4.261-1.744c3.545,0,5.505,2.652,5.505,4.485	c0,0.301,0,0.676-1.02,0.676H1.519C0.5,23.5,0.5,23.125,0.5,22.824c0-1.833,1.957-4.485,5.495-4.485c1.683,0,3.2,0.62,4.272,1.745	l0.34,0.357l0.362-0.335C12.257,18.913,14.045,18.257,16.005,18.257 M16.005,17.757c-2.319,0-4.162,0.858-5.376,1.982	c-1.042-1.094-2.632-1.9-4.634-1.9C2.31,17.839,0,20.576,0,22.824C0,23.563,0.406,24,1.519,24H30.48c1.114,0,1.52-0.437,1.52-1.176	c0-2.248-2.311-4.985-6.005-4.985c-1.995,0-3.583,0.806-4.624,1.899C20.158,18.614,18.318,17.757,16.005,17.757L16.005,17.757z"/></svg>