<svg xmlns="http://www.w3.org/2000/svg"  viewBox="0 0 32 32" width="50px" height="50px" baseProfile="basic"><linearGradient id="w3DAiZj70Dv5nvIPlgWYwa" x1="3.535" x2="15.42" y1="5.535" y2="17.42" gradientUnits="userSpaceOnUse"><stop offset="0" stop-color="#2680ff" stop-opacity=".95"/><stop offset="1" stop-color="#2680ff" stop-opacity=".5"/></linearGradient><path fill="url(#w3DAiZj70Dv5nvIPlgWYwa)" d="M13,19H6c-1.105,0-2-0.895-2-2V6c0-1.105,0.895-2,2-2h7c1.105,0,2,0.895,2,2v11 C15,18.105,14.105,19,13,19z"/><linearGradient id="w3DAiZj70Dv5nvIPlgWYwb" x1="3.586" x2="15.414" y1="5.586" y2="17.414" gradientUnits="userSpaceOnUse"><stop offset="0" stop-color="#fff" stop-opacity=".6"/><stop offset=".493" stop-color="#fff" stop-opacity="0"/><stop offset=".997" stop-color="#fff" stop-opacity=".3"/></linearGradient><path fill="url(#w3DAiZj70Dv5nvIPlgWYwb)" d="M13,4.5c0.827,0,1.5,0.673,1.5,1.5v11 c0,0.827-0.673,1.5-1.5,1.5H6c-0.827,0-1.5-0.673-1.5-1.5V6c0-0.827,0.673-1.5,1.5-1.5H13 M13,4H6C4.895,4,4,4.895,4,6v11 c0,1.105,0.895,2,2,2h7c1.105,0,2-0.895,2-2V6C15,4.895,14.105,4,13,4L13,4z"/><g><linearGradient id="w3DAiZj70Dv5nvIPlgWYwc" x1="5.552" x2="13.418" y1="20.552" y2="28.418" gradientUnits="userSpaceOnUse"><stop offset="0" stop-color="#7259ff" stop-opacity=".95"/><stop offset="1" stop-color="#7259ff" stop-opacity=".5"/></linearGradient><path fill="url(#w3DAiZj70Dv5nvIPlgWYwc)" d="M13,28H6c-1.105,0-2-0.895-2-2v-3 c0-1.105,0.895-2,2-2h7c1.105,0,2,0.895,2,2v3C15,27.105,14.105,28,13,28z"/><linearGradient id="w3DAiZj70Dv5nvIPlgWYwd" x1="5.586" x2="13.414" y1="20.586" y2="28.414" gradientUnits="userSpaceOnUse"><stop offset=".002" stop-color="#fff" stop-opacity=".6"/><stop offset=".493" stop-color="#fff" stop-opacity="0"/><stop offset=".996" stop-color="#fff" stop-opacity=".3"/></linearGradient><path fill="url(#w3DAiZj70Dv5nvIPlgWYwd)" d="M13,21.5c0.827,0,1.5,0.673,1.5,1.5v3 c0,0.827-0.673,1.5-1.5,1.5H6c-0.827,0-1.5-0.673-1.5-1.5v-3c0-0.827,0.673-1.5,1.5-1.5H13 M13,21H6c-1.105,0-2,0.895-2,2v3 c0,1.105,0.895,2,2,2h7c1.105,0,2-0.895,2-2v-3C15,21.895,14.105,21,13,21L13,21z"/></g><g><linearGradient id="w3DAiZj70Dv5nvIPlgWYwe" x1="16.535" x2="28.42" y1="14.535" y2="26.42" gradientUnits="userSpaceOnUse"><stop offset="0" stop-color="#2680ff" stop-opacity=".95"/><stop offset="1" stop-color="#2680ff" stop-opacity=".5"/></linearGradient><path fill="url(#w3DAiZj70Dv5nvIPlgWYwe)" d="M26,28h-7c-1.105,0-2-0.895-2-2V15 c0-1.105,0.895-2,2-2h7c1.105,0,2,0.895,2,2v11C28,27.105,27.105,28,26,28z"/><linearGradient id="w3DAiZj70Dv5nvIPlgWYwf" x1="16.586" x2="28.414" y1="14.586" y2="26.414" gradientUnits="userSpaceOnUse"><stop offset="0" stop-color="#fff" stop-opacity=".6"/><stop offset=".493" stop-color="#fff" stop-opacity="0"/><stop offset=".997" stop-color="#fff" stop-opacity=".3"/></linearGradient><path fill="url(#w3DAiZj70Dv5nvIPlgWYwf)" d="M26,13.5c0.827,0,1.5,0.673,1.5,1.5v11 c0,0.827-0.673,1.5-1.5,1.5h-7c-0.827,0-1.5-0.673-1.5-1.5V15c0-0.827,0.673-1.5,1.5-1.5H26 M26,13h-7c-1.105,0-2,0.895-2,2v11 c0,1.105,0.895,2,2,2h7c1.105,0,2-0.895,2-2V15C28,13.895,27.105,13,26,13L26,13z"/></g><g><linearGradient id="w3DAiZj70Dv5nvIPlgWYwg" x1="18.552" x2="26.418" y1="3.552" y2="11.418" gradientUnits="userSpaceOnUse"><stop offset="0" stop-color="#7259ff" stop-opacity=".95"/><stop offset="1" stop-color="#7259ff" stop-opacity=".5"/></linearGradient><path fill="url(#w3DAiZj70Dv5nvIPlgWYwg)" d="M26,11h-7c-1.105,0-2-0.895-2-2V6 c0-1.105,0.895-2,2-2h7c1.105,0,2,0.895,2,2v3C28,10.105,27.105,11,26,11z"/><linearGradient id="w3DAiZj70Dv5nvIPlgWYwh" x1="18.586" x2="26.414" y1="3.586" y2="11.414" gradientUnits="userSpaceOnUse"><stop offset=".002" stop-color="#fff" stop-opacity=".6"/><stop offset=".493" stop-color="#fff" stop-opacity="0"/><stop offset=".996" stop-color="#fff" stop-opacity=".3"/></linearGradient><path fill="url(#w3DAiZj70Dv5nvIPlgWYwh)" d="M26,4.5c0.827,0,1.5,0.673,1.5,1.5v3 c0,0.827-0.673,1.5-1.5,1.5h-7c-0.827,0-1.5-0.673-1.5-1.5V6c0-0.827,0.673-1.5,1.5-1.5H26 M26,4h-7c-1.105,0-2,0.895-2,2v3 c0,1.105,0.895,2,2,2h7c1.105,0,2-0.895,2-2V6C28,4.895,27.105,4,26,4L26,4z"/></g></svg>