 <svg xmlns="http://www.w3.org/2000/svg"  viewBox="0 0 32 32" width="32px" height="32px"><linearGradient id="6aZGTZnjOwvk5Ab3pTu9ua" x1="5.3" x2="26.618" y1="5.3" y2="26.618" gradientUnits="userSpaceOnUse"><stop offset="0" stop-color="#2680ff" stop-opacity=".95"/><stop offset="1" stop-color="#2680ff" stop-opacity=".5"/></linearGradient><path fill="url(#6aZGTZnjOwvk5Ab3pTu9ua)" d="M23.25,28H8.75C6.127,28,4,25.873,4,23.25V8.75C4,6.127,6.127,4,8.75,4h14.5 C25.873,4,28,6.127,28,8.75v14.5C28,25.873,25.873,28,23.25,28z"/><linearGradient id="6aZGTZnjOwvk5Ab3pTu9ub" x1="11.659" x2="22.18" y1="12.776" y2="23.297" gradientUnits="userSpaceOnUse"><stop offset="0" stop-color="#fff" stop-opacity=".8"/><stop offset=".519" stop-color="#fff" stop-opacity=".5"/><stop offset="1" stop-color="#fff" stop-opacity=".6"/></linearGradient><path fill="url(#6aZGTZnjOwvk5Ab3pTu9ub)" d="M19.599,12.042l1.506,0.03 c0.282,0.006,0.513-0.224,0.51-0.506l-0.03-2.428c-0.003-0.235-0.162-0.435-0.392-0.483c-0.443-0.091-1.23-0.218-2.18-0.218 c-1.482,0-5.876,0.076-5.876,5.571c0,0.533-0.001,1.225-0.002,2.012h-2.016c-0.276,0-0.5,0.224-0.5,0.5v2.706 c0,0.276,0.224,0.5,0.5,0.5h2.008C13.118,23.731,13.114,28,13.114,28h4.364l0.009-8.275h2.875c0.244,0,0.452-0.175,0.493-0.415 l0.464-2.706c0.052-0.305-0.183-0.584-0.493-0.584h-3.335l0.002-1.915C17.495,12.948,18.444,12.019,19.599,12.042z"/><linearGradient id="6aZGTZnjOwvk5Ab3pTu9uc" x1="5.391" x2="26.609" y1="5.391" y2="26.609" gradientUnits="userSpaceOnUse"><stop offset=".002" stop-color="#fff" stop-opacity=".6"/><stop offset=".493" stop-color="#fff" stop-opacity="0"/><stop offset=".996" stop-color="#fff" stop-opacity=".3"/></linearGradient><path fill="url(#6aZGTZnjOwvk5Ab3pTu9uc)" d="M23.25,4.5 c2.343,0,4.25,1.907,4.25,4.25v14.5c0,2.343-1.907,4.25-4.25,4.25H8.75c-2.343,0-4.25-1.907-4.25-4.25V8.75 c0-2.343,1.907-4.25,4.25-4.25H23.25 M23.25,4H8.75C6.127,4,4,6.127,4,8.75v14.5C4,25.873,6.127,28,8.75,28h14.5 c2.623,0,4.75-2.127,4.75-4.75V8.75C28,6.127,25.873,4,23.25,4L23.25,4z"/></svg>