<svg xmlns="http://www.w3.org/2000/svg"  viewBox="0 0 32 32" width="32px" height="32px" fill-rule="evenodd" clip-rule="evenodd"><linearGradient id="jGHr9m3S6PO02ExgH-lW8a" x1="5.3" x2="26.618" y1="5.3" y2="26.618" gradientUnits="userSpaceOnUse"><stop offset="0" stop-color="#2680ff" stop-opacity=".95"/><stop offset="1" stop-color="#2680ff" stop-opacity=".5"/></linearGradient><path fill="url(#jGHr9m3S6PO02ExgH-lW8a)" d="M23.25,28H8.75C6.127,28,4,25.873,4,23.25V8.75C4,6.127,6.127,4,8.75,4h14.5 C25.873,4,28,6.127,28,8.75v14.5C28,25.873,25.873,28,23.25,28z"/><linearGradient id="jGHr9m3S6PO02ExgH-lW8b" x1="5.391" x2="26.609" y1="5.391" y2="26.609" gradientUnits="userSpaceOnUse"><stop offset="0" stop-color="#fff" stop-opacity=".6"/><stop offset=".493" stop-color="#fff" stop-opacity="0"/><stop offset=".997" stop-color="#fff" stop-opacity=".3"/></linearGradient><path fill="url(#jGHr9m3S6PO02ExgH-lW8b)" d="M23.25,4.5c2.343,0,4.25,1.907,4.25,4.25 v14.5c0,2.343-1.907,4.25-4.25,4.25H8.75c-2.343,0-4.25-1.907-4.25-4.25V8.75c0-2.343,1.907-4.25,4.25-4.25H23.25 M23.25,4H8.75 C6.127,4,4,6.127,4,8.75v14.5C4,25.873,6.127,28,8.75,28h14.5c2.623,0,4.75-2.127,4.75-4.75V8.75C28,6.127,25.873,4,23.25,4 L23.25,4z"/><linearGradient id="jGHr9m3S6PO02ExgH-lW8c" x1="12.841" x2="23.988" y1="13.732" y2="24.879" gradientUnits="userSpaceOnUse"><stop offset="0" stop-color="#fff" stop-opacity=".8"/><stop offset=".519" stop-color="#fff" stop-opacity=".5"/><stop offset="1" stop-color="#fff" stop-opacity=".6"/></linearGradient><path fill="url(#jGHr9m3S6PO02ExgH-lW8c)" fill-rule="evenodd" d="M13.64,13.14h2.234c0.276,0,0.5,0.224,0.5,0.5v1.148h0.035c0.493-0.889,1.949-1.791,3.75-1.791c3.456,0,4.42,1.835,4.42,5.234 v5.849c0,0.276-0.224,0.5-0.5,0.5h-2.432c-0.276,0-0.5-0.224-0.5-0.5v-5.223c0-1.521-0.607-2.857-2.028-2.857 c-1.725,0-2.548,1.168-2.548,3.085v4.995c0,0.276-0.224,0.5-0.5,0.5H13.64c-0.276,0-0.5-0.224-0.5-0.5V13.64 C13.14,13.364,13.364,13.14,13.64,13.14z" clip-rule="evenodd"/><linearGradient id="jGHr9m3S6PO02ExgH-lW8d" x1="5.565" x2="12.708" y1="15.289" y2="22.431" gradientUnits="userSpaceOnUse"><stop offset="0" stop-color="#fff" stop-opacity=".8"/><stop offset=".519" stop-color="#fff" stop-opacity=".5"/><stop offset="1" stop-color="#fff" stop-opacity=".6"/></linearGradient><path fill="url(#jGHr9m3S6PO02ExgH-lW8d)" fill-rule="evenodd" d="M7.92,24.58h2.432c0.276,0,0.5-0.224,0.5-0.5V13.64c0-0.276-0.224-0.5-0.5-0.5H7.92c-0.276,0-0.5,0.224-0.5,0.5v10.44 C7.42,24.356,7.644,24.58,7.92,24.58z" clip-rule="evenodd"/><linearGradient id="jGHr9m3S6PO02ExgH-lW8e" x1="7.62" x2="10.653" y1="7.62" y2="10.653" gradientUnits="userSpaceOnUse"><stop offset="0" stop-color="#fff" stop-opacity=".8"/><stop offset=".519" stop-color="#fff" stop-opacity=".5"/><stop offset="1" stop-color="#fff" stop-opacity=".6"/></linearGradient><circle cx="9.137" cy="9.137" r="2.144" fill="url(#jGHr9m3S6PO02ExgH-lW8e)" fill-rule="evenodd" clip-rule="evenodd"/></svg>