<svg xmlns="http://www.w3.org/2000/svg"  viewBox="0 0 32 32" width="50px" height="50px" baseProfile="basic"><linearGradient id="wi3OktBN7mFLKjqp3s1XGa" x1="8.939" x2="23.061" y1="-.061" y2="14.061" gradientUnits="userSpaceOnUse"><stop offset="0" stop-color="#00cf30" stop-opacity=".95"/><stop offset="1" stop-color="#00cf30" stop-opacity=".5"/></linearGradient><path fill="url(#wi3OktBN7mFLKjqp3s1XGa)" d="M26.5,10h-21C4.672,10,4,9.328,4,8.5v-3C4,4.672,4.672,4,5.5,4h21C27.328,4,28,4.672,28,5.5v3	C28,9.328,27.328,10,26.5,10z"/><linearGradient id="wi3OktBN7mFLKjqp3s1XGb" x1="8.939" x2="23.061" y1="-.061" y2="14.061" gradientUnits="userSpaceOnUse"><stop offset="0" stop-color="#fff" stop-opacity=".6"/><stop offset=".493" stop-color="#fff" stop-opacity="0"/><stop offset=".997" stop-color="#fff" stop-opacity=".3"/></linearGradient><path fill="url(#wi3OktBN7mFLKjqp3s1XGb)" d="M26.5,4.5c0.551,0,1,0.449,1,1v3c0,0.551-0.449,1-1,1h-21c-0.551,0-1-0.449-1-1v-3	c0-0.551,0.449-1,1-1H26.5 M26.5,4h-21C4.672,4,4,4.672,4,5.5v3C4,9.328,4.672,10,5.5,10h21c0.828,0,1.5-0.672,1.5-1.5v-3	C28,4.672,27.328,4,26.5,4L26.5,4z"/><linearGradient id="wi3OktBN7mFLKjqp3s1XGc" x1="8.939" x2="23.061" y1="8.939" y2="23.061" gradientUnits="userSpaceOnUse"><stop offset="0" stop-color="#00cf30" stop-opacity=".95"/><stop offset="1" stop-color="#00cf30" stop-opacity=".5"/></linearGradient><path fill="url(#wi3OktBN7mFLKjqp3s1XGc)" d="M26.5,19h-21C4.672,19,4,18.328,4,17.5v-3C4,13.672,4.672,13,5.5,13h21	c0.828,0,1.5,0.672,1.5,1.5v3C28,18.328,27.328,19,26.5,19z"/><linearGradient id="wi3OktBN7mFLKjqp3s1XGd" x1="8.939" x2="23.061" y1="8.939" y2="23.061" gradientUnits="userSpaceOnUse"><stop offset="0" stop-color="#fff" stop-opacity=".6"/><stop offset=".493" stop-color="#fff" stop-opacity="0"/><stop offset=".997" stop-color="#fff" stop-opacity=".3"/></linearGradient><path fill="url(#wi3OktBN7mFLKjqp3s1XGd)" d="M26.5,13.5c0.551,0,1,0.449,1,1v3c0,0.551-0.449,1-1,1h-21c-0.551,0-1-0.449-1-1v-3	c0-0.551,0.449-1,1-1H26.5 M26.5,13h-21C4.672,13,4,13.672,4,14.5v3C4,18.328,4.672,19,5.5,19h21c0.828,0,1.5-0.672,1.5-1.5v-3	C28,13.672,27.328,13,26.5,13L26.5,13z"/><linearGradient id="wi3OktBN7mFLKjqp3s1XGe" x1="8.939" x2="23.061" y1="17.939" y2="32.061" gradientUnits="userSpaceOnUse"><stop offset="0" stop-color="#00cf30" stop-opacity=".95"/><stop offset="1" stop-color="#00cf30" stop-opacity=".5"/></linearGradient><path fill="url(#wi3OktBN7mFLKjqp3s1XGe)" d="M26.5,28h-21C4.672,28,4,27.328,4,26.5v-3C4,22.672,4.672,22,5.5,22h21	c0.828,0,1.5,0.672,1.5,1.5v3C28,27.328,27.328,28,26.5,28z"/><linearGradient id="wi3OktBN7mFLKjqp3s1XGf" x1="8.939" x2="23.061" y1="17.939" y2="32.061" gradientUnits="userSpaceOnUse"><stop offset="0" stop-color="#fff" stop-opacity=".6"/><stop offset=".493" stop-color="#fff" stop-opacity="0"/><stop offset=".997" stop-color="#fff" stop-opacity=".3"/></linearGradient><path fill="url(#wi3OktBN7mFLKjqp3s1XGf)" d="M26.5,22.5c0.551,0,1,0.449,1,1v3c0,0.551-0.449,1-1,1h-21c-0.551,0-1-0.449-1-1v-3	c0-0.551,0.449-1,1-1H26.5 M26.5,22h-21C4.672,22,4,22.672,4,23.5v3C4,27.328,4.672,28,5.5,28h21c0.828,0,1.5-0.672,1.5-1.5v-3	C28,22.672,27.328,22,26.5,22L26.5,22z"/><linearGradient id="wi3OktBN7mFLKjqp3s1XGg" x1="17.281" x2="25.842" y1="20.719" y2="29.281" gradientUnits="userSpaceOnUse"><stop offset="0" stop-color="#fff" stop-opacity=".8"/><stop offset=".519" stop-color="#fff" stop-opacity=".5"/><stop offset="1" stop-color="#fff" stop-opacity=".6"/></linearGradient><path fill="url(#wi3OktBN7mFLKjqp3s1XGg)" d="M28,23.5v3c0,0.83-0.67,1.5-1.5,1.5H16v-6h10.5C27.33,22,28,22.67,28,23.5z"/><linearGradient id="wi3OktBN7mFLKjqp3s1XGh" x1="21.781" x2="27.342" y1="13.219" y2="18.781" gradientUnits="userSpaceOnUse"><stop offset="0" stop-color="#fff" stop-opacity=".8"/><stop offset=".519" stop-color="#fff" stop-opacity=".5"/><stop offset="1" stop-color="#fff" stop-opacity=".6"/></linearGradient><path fill="url(#wi3OktBN7mFLKjqp3s1XGh)" d="M28,14.5v3c0,0.83-0.67,1.5-1.5,1.5H22v-6h4.5C27.33,13,28,13.67,28,14.5z"/><linearGradient id="wi3OktBN7mFLKjqp3s1XGi" x1="13.531" x2="24.592" y1="1.469" y2="12.531" gradientUnits="userSpaceOnUse"><stop offset="0" stop-color="#fff" stop-opacity=".8"/><stop offset=".519" stop-color="#fff" stop-opacity=".5"/><stop offset="1" stop-color="#fff" stop-opacity=".6"/></linearGradient><path fill="url(#wi3OktBN7mFLKjqp3s1XGi)" d="M28,5.5v3c0,0.83-0.67,1.5-1.5,1.5H11V4h15.5C27.33,4,28,4.67,28,5.5z"/></svg>