<svg xmlns="http://www.w3.org/2000/svg" xmlns:xlink="http://www.w3.org/1999/xlink" viewBox="0,0,255.99263,255.99263" width="30px" height="30px" fill-rule="evenodd"><defs><linearGradient x1="10.586" y1="1.61" x2="36.054" y2="44.121" gradientUnits="userSpaceOnUse" id="color-1"><stop offset="0.002" stop-color="#000000"></stop><stop offset="0.003" stop-color="#000000"></stop><stop offset="0.373" stop-color="#000000"></stop><stop offset="1" stop-color="#000000"></stop></linearGradient></defs><g fill="url(#color-1)" fill-rule="evenodd" stroke="none" stroke-width="1" stroke-linecap="butt" stroke-linejoin="miter" stroke-miterlimit="10" stroke-dasharray="" stroke-dashoffset="0" font-family="none" font-weight="none" font-size="none" text-anchor="none" style="mix-blend-mode: normal"><g transform="scale(5.33333,5.33333)"><path d="M11.469,4l11.39,10.494v-0.002v-10.468h2.217v10.517l11.442,-10.541v11.965h4.697v17.258h-4.683v10.654l-11.455,-10.064v10.18h-2.217v-10.014l-11.378,10.021v-10.776h-4.697v-17.259h4.685v-11.965zM21.188,18.155h-12.186v12.878h2.477v-4.062zM13.699,27.943v11.17l9.16,-8.068v-11.422zM25.141,30.938v-11.326l9.163,8.321v5.291h0.012v5.775zM36.532,31.033h2.466v-12.878h-12.095l9.629,8.725zM34.301,15.965v-6.927l-7.519,6.927zM21.205,15.965h-7.519v-6.927z"></path></g></g></svg>