<?xml version="1.0" encoding="UTF-8"?>
<svg width="1200pt" height="1200pt" version="1.1" viewBox="0 0 1200 1200" xmlns="http://www.w3.org/2000/svg">
 <path d="m156 228h174.62c11.23 0 22.102 3.9375 30.73 11.125l55.312 46.094c2.1562 1.7969 4.875 2.7812 7.6797 2.7812h499.66c26.508 0 48 21.492 48 48v108c0 6.6289 5.3711 12 12 12h48c26.316 0 47.648 21.332 47.648 47.648 0 3.6328-0.41797 7.2539-1.2383 10.793l-97.777 420.43c-5.0547 21.742-24.43 37.129-46.75 37.129h-777.88c-26.508 0-48-21.492-48-48v-648c0-26.508 21.492-48 48-48zm768 216v-96c0-6.6289-5.3711-12-12-12h-492c-11.23 0-22.102-3.9375-30.73-11.125l-55.309-46.094c-2.1602-1.7969-4.875-2.7812-7.6836-2.7812h-158.28c-6.6289 0-12 5.3711-12 12l-0.03125 500.53c0 1.9883 1.6094 3.6016 3.5977 3.6016 1.6797 0 3.1328-1.1562 3.5078-2.793l68.34-296.13c5.0273-21.781 24.418-37.207 46.77-37.207h633.82c6.6289 0 12-5.3711 12-12zm-728.91 480h729.27c5.582 0 10.426-3.8477 11.688-9.2812l92.094-396c1.5039-6.457-2.5156-12.906-8.9688-14.406-0.89062-0.20703-1.8047-0.3125-2.7188-0.3125l-720.42-0.046875c-11.176 0-20.875 7.7109-23.387 18.602l-89.25 386.75c-1.4883 6.457 2.5391 12.902 8.9961 14.391 0.88281 0.20703 1.7891 0.30859 2.6992 0.30859z"/>
</svg>
