<svg xmlns="http://www.w3.org/2000/svg" width="24" height="24" viewBox="0 0 24 24" fill="none">
  <defs>
    <linearGradient id="contactsGrad" x1="0%" y1="0%" x2="100%" y2="100%">
      <stop offset="0%" style="stop-color:#007AFF"/>
      <stop offset="100%" style="stop-color:#5856D6"/>
    </linearGradient>
  </defs>
  <!-- person.3 - Three people cluster -->
  <!-- Center person (front) -->
  <circle cx="12" cy="8" r="3" fill="url(#contactsGrad)"/>
  <path d="M7 18c0-2.761 2.239-5 5-5s5 2.239 5 5v1H7v-1z" fill="url(#contactsGrad)"/>
  <!-- Left person (back) -->
  <circle cx="5.5" cy="9" r="2" fill="url(#contactsGrad)" opacity="0.6"/>
  <path d="M2 17c0-1.933 1.567-3.5 3.5-3.5.7 0 1.35.2 1.9.55-.6.85-1 1.85-1.1 2.95H2v-1z" fill="url(#contactsGrad)" opacity="0.6"/>
  <!-- Right person (back) -->
  <circle cx="18.5" cy="9" r="2" fill="url(#contactsGrad)" opacity="0.6"/>
  <path d="M22 17c0-1.933-1.567-3.5-3.5-3.5-.7 0-1.35.2-1.9.55.6.85 1 1.85 1.1 2.95H22v-1z" fill="url(#contactsGrad)" opacity="0.6"/>
</svg>

