<svg xmlns="http://www.w3.org/2000/svg" width="24" height="24" viewBox="0 0 24 24" fill="none">
  <defs>
    <linearGradient id="projectsGrad" x1="0%" y1="0%" x2="100%" y2="100%">
      <stop offset="0%" style="stop-color:#007AFF"/>
      <stop offset="100%" style="stop-color:#5856D6"/>
    </linearGradient>
  </defs>
  <!-- Folder icon -->
  <path d="M3 6C3 4.89543 3.89543 4 5 4H9.58579C9.851 4 10.1054 4.10536 10.2929 4.29289L11.7071 5.70711C11.8946 5.89464 12.149 6 12.4142 6H19C20.1046 6 21 6.89543 21 8V18C21 19.1046 20.1046 20 19 20H5C3.89543 20 3 19.1046 3 18V6Z" fill="url(#projectsGrad)"/>
  <!-- Folder tab highlight -->
  <path d="M3 6C3 4.89543 3.89543 4 5 4H9.58579C9.851 4 10.1054 4.10536 10.2929 4.29289L11.7071 5.70711C11.8946 5.89464 12.149 6 12.4142 6H19C20.1046 6 21 6.89543 21 8V9H3V6Z" fill="url(#projectsGrad)" opacity="0.8"/>
</svg>

