<?xml version="1.0" encoding="UTF-8"?>
<svg width="1200pt" height="1200pt" version="1.1" viewBox="0 0 1200 1200" xmlns="http://www.w3.org/2000/svg">
 <path d="m446.4 579.6c-9.6016-9.6016-24-9.6016-33.602 0-9.6016 9.6016-9.6016 24 0 33.602l188.4 188.4c4.8008 4.8008 10.801 7.1992 16.801 7.1992s12-2.3984 16.801-7.1992l464.4-464.4c9.6016-9.6016 9.6016-24 0-33.602-9.6016-9.6016-24-9.6016-33.602 0l-447.59 448.8z"/>
 <path d="m252 1008h720c26.398 0 48-21.602 48-48v-394.8c0-13.199-10.801-24-24-24s-24 10.801-24 24v394.8h-720v-720h720c13.199 0 24-10.801 24-24s-10.801-24-24-24h-720c-26.398 0-48 21.602-48 48v720c0 26.398 21.602 48 48 48z"/>
</svg>
